<svg id="Group_1053" data-name="Group 1053" xmlns="http://www.w3.org/2000/svg" viewBox="-8237 5537 49 49">
  <defs>
    <style>
      .cls-1 {
        fill: #d0d0d0;
      }

      .cls-2 {
        fill: none;
      }
    </style>
  </defs>
  <g id="Group_1052" data-name="Group 1052" transform="translate(-8852.897 5374.969)">
    <path id="Path_5449" data-name="Path 5449" class="cls-1" d="M37.448,12.284H31.665L28.952,5.5h-17.2L9.038,12.284h-.9V8.892H4.07v3.392H3.256A3.259,3.259,0,0,0,0,15.539V35.462a3.282,3.282,0,0,0,3.279,3.279H37.425A3.282,3.282,0,0,0,40.7,35.462V15.539A3.259,3.259,0,0,0,37.448,12.284ZM5.427,10.249H6.784v2.035H5.427ZM39.347,35.462a1.924,1.924,0,0,1-1.922,1.922H3.279a1.924,1.924,0,0,1-1.922-1.922V15.539a1.9,1.9,0,0,1,1.9-1.9h6.7L12.67,6.857H28.033l2.714,6.784h6.7a1.9,1.9,0,0,1,1.9,1.9V35.462Z" transform="translate(619.897 164.531)"/>
    <path id="Path_5450" data-name="Path 5450" class="cls-1" d="M24.211,14.5A12.211,12.211,0,1,0,36.422,26.711,12.225,12.225,0,0,0,24.211,14.5Zm0,23.065A10.854,10.854,0,1,1,35.065,26.711,10.867,10.867,0,0,1,24.211,37.565Z" transform="translate(616.039 161.637)"/>
    <path id="Path_5451" data-name="Path 5451" class="cls-1" d="M26.141,20.5a8.141,8.141,0,1,0,8.141,8.141A8.15,8.15,0,0,0,26.141,20.5Zm0,14.925a6.784,6.784,0,1,1,6.784-6.784A6.792,6.792,0,0,1,26.141,35.425Z" transform="translate(614.108 159.707)"/>
    <path id="Path_5452" data-name="Path 5452" class="cls-1" d="M50.714,19.5a2.714,2.714,0,1,0,2.714,2.714A2.716,2.716,0,0,0,50.714,19.5Zm0,4.07a1.357,1.357,0,1,1,1.357-1.357A1.358,1.358,0,0,1,50.714,23.57Z" transform="translate(604.461 160.029)"/>
  </g>
  <rect id="Rectangle_616" data-name="Rectangle 616" class="cls-2" width="49" height="49" transform="translate(-8237 5537)"/>
</svg>
