<svg xmlns="http://www.w3.org/2000/svg" viewBox="-4546 6357 53 53">
  <defs>
    <style>
      .cls-1 {
        fill: #d0d0d0;
      }

      .cls-2 {
        fill: #fff;
      }
    </style>
  </defs>
  <g id="Group_1047" data-name="Group 1047" transform="translate(-2707 279)">
    <rect id="Rectangle_613" data-name="Rectangle 613" class="cls-1" width="53" height="53" rx="26.5" transform="translate(-1839 6078)"/>
    <g id="edit_1_" data-name="edit (1)" transform="translate(-1823 6090)">
      <g id="Group_1041" data-name="Group 1041" transform="translate(0 0)">
        <path id="Path_5441" data-name="Path 5441" class="cls-2" d="M105.72,7.723l-2.412,2.412c-.889.889-1.783,1.778-2.666,2.676a1.658,1.658,0,0,0-.427.777c-.32,1.468-.63,2.935-.94,4.4L99.1,18.8a1.158,1.158,0,0,0,.295,1.061,1.133,1.133,0,0,0,.8.325,1.492,1.492,0,0,0,.259-.025l.894-.188c1.422-.3,2.849-.6,4.271-.9a1.657,1.657,0,0,0,.848-.457q5.988-6,11.976-11.975a1.682,1.682,0,0,0,.5-1.077.708.708,0,0,0-.015-.208c-.025-.1-.046-.208-.071-.31a4.481,4.481,0,0,0-.239-.838h0A6.622,6.622,0,0,0,114.938.6a4.073,4.073,0,0,0-1.016-.223l-.086-.01A1.43,1.43,0,0,0,112.6.831Q109.174,4.275,105.72,7.723Zm7.948-6.13h.025l.086.01a2.669,2.669,0,0,1,.7.142A5.425,5.425,0,0,1,117.492,4.7a3.163,3.163,0,0,1,.163.589c.015.081.036.163.051.244a.386.386,0,0,1-.127.218q-6,5.98-11.981,11.975a.4.4,0,0,1-.218.117l-4.276.9-.752.157.142-.665c.31-1.463.62-2.93.934-4.393a.443.443,0,0,1,.1-.168q1.326-1.341,2.656-2.666L106.594,8.6q3.451-3.451,6.9-6.907C113.587,1.608,113.633,1.593,113.668,1.593Z" transform="translate(-94.044 -0.358)"/>
        <path id="Path_5442" data-name="Path 5442" class="cls-2" d="M1.976,86.028h8.867a.625.625,0,1,0,0-1.249H1.976A1.978,1.978,0,0,0,0,86.755v16.628a1.978,1.978,0,0,0,1.976,1.976H18.6a1.978,1.978,0,0,0,1.976-1.976V94.875a.625.625,0,0,0-1.249,0v8.507a.735.735,0,0,1-.731.731H1.976a.735.735,0,0,1-.731-.731V86.76A.735.735,0,0,1,1.976,86.028Z" transform="translate(0 -80.492)"/>
      </g>
    </g>
  </g>
</svg>
