<svg xmlns="http://www.w3.org/2000/svg" viewBox="-4451 6357 53 53">
  <defs>
    <style>
      .cls-1 {
        fill: #d0d0d0;
      }

      .cls-2 {
        fill: #fff;
      }
    </style>
  </defs>
  <g id="Group_1046" data-name="Group 1046" transform="translate(-2536 279)">
    <rect id="Rectangle_612" data-name="Rectangle 612" class="cls-1" width="53" height="53" rx="26.5" transform="translate(-1915 6078)"/>
    <g id="delete" transform="translate(-1883 5875)">
      <g id="Group_1042" data-name="Group 1042" transform="translate(-20 220)">
        <path id="Path_5443" data-name="Path 5443" class="cls-2" d="M6.238,80.948A4.811,4.811,0,0,0,9.768,82.5H20.783a4.079,4.079,0,0,0,4.073-4.073V68.236a4.079,4.079,0,0,0-4.073-4.073H9.768a4.784,4.784,0,0,0-3.53,1.554L.56,71.9a2.112,2.112,0,0,0,0,2.864ZM1.479,72.741l5.678-6.186a3.556,3.556,0,0,1,2.616-1.148H20.788a2.833,2.833,0,0,1,2.829,2.829V78.424a2.833,2.833,0,0,1-2.829,2.829H9.768A3.556,3.556,0,0,1,7.152,80.1L1.479,73.919A.863.863,0,0,1,1.479,72.741Z" transform="translate(0 -64.163)"/>
        <path id="Path_5444" data-name="Path 5444" class="cls-2" d="M222.091,182.758a.625.625,0,0,0,.884,0l2.428-2.428,2.428,2.428a.623.623,0,0,0,.884-.879l-2.433-2.428,2.428-2.428a.621.621,0,0,0-.879-.879l-2.428,2.428-2.428-2.428a.621.621,0,0,0-.879.879l2.428,2.428L222.1,181.88A.624.624,0,0,0,222.091,182.758Z" transform="translate(-210.642 -170.285)"/>
      </g>
    </g>
  </g>
</svg>
