<svg id="Group_1050" data-name="Group 1050" xmlns="http://www.w3.org/2000/svg" viewBox="-9196 5610 35 35">
  <defs>
    <style>
      .cls-1 {
        fill: none;
      }
    </style>
  </defs>
  <rect id="Rectangle_614" data-name="Rectangle 614" class="cls-1" width="35" height="35" transform="translate(-9196 5610)"/>
  <g id="logout" transform="translate(-9194.589 5549.959)">
    <path id="Path_5447" data-name="Path 5447" d="M169.5,88.966a11.664,11.664,0,0,1-9.675-5.144,1.426,1.426,0,1,1,2.364-1.6,8.816,8.816,0,1,0-.012-9.838,1.427,1.427,0,1,1-2.368-1.591,11.669,11.669,0,1,1,9.691,18.17Z" transform="translate(-149.785)"/>
    <path id="Path_5448" data-name="Path 5448" d="M21.4,167.19H4.87l1.844-1.844A1.426,1.426,0,0,0,4.7,163.328l-4.28,4.279-.006.006c-.031.031-.06.063-.088.1-.009.01-.016.021-.024.032-.02.026-.041.053-.059.08l-.017.029c-.019.03-.038.06-.055.091l-.01.021c-.018.034-.035.069-.05.105l-.006.015c-.015.038-.03.077-.042.116l0,.016c-.011.039-.022.078-.03.119,0,.012,0,.025-.006.037-.006.034-.012.067-.015.1s-.007.095-.007.142,0,.1.007.142.01.069.015.1c0,.012,0,.024.005.036.008.041.019.081.03.121,0,0,0,.01,0,.014.012.04.027.08.042.118l0,.013c.015.037.033.072.051.107l.009.019c.017.032.037.064.057.094l.015.025c.02.029.041.057.063.085l.02.027c.03.036.061.071.094.1L4.7,173.9a1.426,1.426,0,0,0,2.017-2.017L4.87,170.043H21.4a1.426,1.426,0,0,0,0-2.853Z" transform="translate(0 -91.32)"/>
  </g>
</svg>
